# xmcd
#
# Track frame offsets:
#	150
#	16547
#	32670
#	45007
#	58597
#	73212
#	87392
#	103955
#	119862
#	132657
#	145705
#	162910
#	179650
#	192292
#
# Disc length: 2743 seconds
#
# Revision: 1
# Processed by: cddbd v1.5.2PL0 Copyright (c) Steve Scherf et al.
# Submitted via: EZCDAudioConverter 5.5.0.1
#
DISCID=c90ab50e
DTITLE=Franco Simone - Sus Grandes Exitos (En Castellano)
DYEAR=1991
DGENRE=Balada
TTITLE0=Tu ... Siempre Tu
TTITLE1=Yo te Queria
TTITLE2=Otro
TTITLE3=El cielo en una habitacion
TTITLE4=Tarde
TTITLE5=Respiro
TTITLE6=Mala droga
TTITLE7=Paisaje
TTITLE8=La Llave
TTITLE9=Gotas
TTITLE10=Triangulo
TTITLE11=Rio Grande
TTITLE12=Tambien se puede nacer
TTITLE13=Duda
EXTD=
EXTT0=
EXTT1=
EXTT2=
EXTT3=
EXTT4=
EXTT5=
EXTT6=
EXTT7=
EXTT8=
EXTT9=
EXTT10=
EXTT11=
EXTT12=
EXTT13=
PLAYORDER=
